<?xml version="1.0" encoding="UTF-8"?>
<svg width="626" height="156" enable-background="new 0 0 1460 476" version="1.1" viewBox="0 0 626 156" xml:space="preserve" xmlns="http://www.w3.org/2000/svg">
<g transform="matrix(.48 0 0 .48 -43.7 -42.6)"><g fill="#f9f9f9">
	<g transform="translate(431 -373)"><g transform="translate(-94.8 382)"><g transform="matrix(.983 0 0 .95 7.21 13.3)" fill="#e4007f"><g transform="translate(-321 7.92)">
	<path d="m427 156c-4-4.9-9-8.7-15-12-6-2.8-13-4.2-22-4.2-14 0-27 3.5-39 10-12 6.9-23 16-32 27-9.2 11-16 23-22 37-5.4 14-8.2 28-8.2 42 0 7.5 1 15 3.1 21 2 6.6 5.2 12 9.5 17 4.3 4.8 9.6 8.5 16 11 6.3 2.7 14 4.1 22 4.1 16 0 30-4 42-12 12-7.9 23-18 31-29 8.5-12 15-24 19-38 4.3-13 6.5-26 6.5-37 0-7.5-.97-15-2.9-21-1.9-6.6-4.9-12-8.8-17zm-37 67c-2.5 13-5.8 24-9.9 35s-8.9 20-14 27c-5.6 7.1-11 11-18 11-5.2 0-9.1-2.9-12-8.7-2.6-5.8-3.9-14-3.9-23 0-13 1.5-26 4.4-39s6.7-24 11-34c4.5-10 9.5-18 15-24 5.4-6.1 11-9.2 16-9.2s8.7 2.7 11 8.2c2.4 5.4 3.6 13 3.6 22 .001 11-1.2 23-3.7 36z"/>
	<path d="m180 291c-8.6 0-15-1.5-20-4.6-4.6-3.1-6.8-8.2-6.8-16 0-1.8 0.11-3.9 0.34-6.1 0.22-2.3 0.68-4.7 1.4-7.2 5.2-20 11-43 17-68 6.4-25 13-50 20-75 1.6-5.9 3.1-11 4.4-15 1.4-3.8 2.9-6.8 4.6-9 1.7-2.3 3.5-3.8 5.5-4.6 1.9-0.8 4.1-1.2 6.7-1.2h3.4v-9.6h-88v9.6h3.4c3.2 0 5.6 0.74 7.3 2.2 1.7 1.5 2.6 4.2 2.6 8 0 4.1-1 10-3.1 19l-39 154c-3 12-5.9 20-8.9 24-3 3.9-7.1 5.8-12 5.8h-3.4v9.6h175l26-83h-9.6c-10 22-23 38-38 50 0 0-29.84 17.1-48.84 17.1z"/>
	<path d="m589 167c0-8.6-2.8-15-8.3-19-5.6-4-12-5.9-18-5.9-6.6 0-13 1.9-18 5.6-5.4 3.7-8.2 9.1-8.2 16 0 3.4.79 6.1 2.4 8.2 1.6 2 3.3 3.9 5.3 5.6 1.9 1.7 3.7 3.6 5.3 5.6s2.4 4.8 2.4 8.2c0 3.9-.97 8.6-2.9 14-1.9 5.7-4.5 12-7.8 18-3.3 6.6-7.2 13-12 21-4.5 7.3-9.5 14-15 22-.68-8.8-1.8-19-3.2-29-1.5-11-3.1-21-4.8-32s-3.5-21-5.4-31-3.9-19-5.9-28h-48l-1.7 9.5c3.4 0 5.9.8 7.6 2.4s3.2 4.9 4.6 9.9c2.9 9.7 6.5 27 11 51 4.1 24 8 54 12 89h16c12-15 25-32 39-49 13-17 27-36 40-55 5.2-7.7 8.9-15 11-21 2.3-6.1 3.4-12 3.4-16z"/>
	<path d="m629 218c2 .23 4.1.34 6.1.34h6.1c17 0 30-1.6 40-5 10-3.3 18-7.5 24-12 5.6-5 9.3-10 11-16 1.8-5.8 2.7-11 2.7-16 0-7.3-2.6-14-7.9-19-5.2-5.3-13-8-23-8-16 0-30 3.7-43 11-13 7.4-24 17-33 28-9.2 11-16 24-21 38s-7.5 27-7.5 39c0 7.5.96 15 2.9 21 1.9 6.6 5 12 9 17 4.1 4.8 9.3 8.6 16 11 6.3 2.8 14 4.3 22 4.3 6.1 0 12-1 19-3.1 6.3-2 12-5.1 18-9.2 5.7-4.1 11-9.2 16-15 4.8-6.1 8.6-13 12-22l-6.5-4.4c-3.2 7.1-8.3 13-15 17-6.9 4.3-14 6.5-21 6.5-3.6 0-7.1-.62-10-1.9-3.2-1.2-6-3.3-8.5-6.1s-4.5-6.5-6-11c-1.5-4.4-2.2-9.8-2.2-16 0-5.2.17-10 .51-15 .34-4.5.97-9.2 1.9-14zm19-48c6.4-8.5 14-13 23-13 3.9 0 6.8 1.3 8.7 3.9s2.9 5.9 2.9 9.7c0 3.9-1 8-3.1 12-2 4.3-5.2 8.4-9.4 12-4.2 3.8-9.6 6.9-16 9.4-6.5 2.5-14 3.8-23 3.8 4.8-17 10-30 17-38z"/>
	<path d="m1310 258c-7.7 0-14 2.7-19 7.9-5.1 5.3-7.6 12-7.6 19 0 7.4 2.5 14 7.6 19 5.1 5.1 11 7.6 19 7.6 7.2 0 13-2.5 19-7.4 5.2-5 7.8-11 7.8-19 0-7.2-2.6-13-7.8-19-5.2-5.3-11-7.9-19-7.9z"/>
	<path d="m1375 77c-4.1-2.9-9.6-4.4-17-4.4-8.8 0-16 2.3-23 6.8-6.3 4.5-11 12-14 23-1.4 5.2-2.2 10-2.5 15-.34 5-.51 10-.51 16v13c0 5-.059 10-.17 16-.12 6-.46 13-1 20-.57 7.6-1.4 16-2.4 25-1 9.4-2.4 20-4.2 31h10c7.7-22 15-41 21-55 6.3-14 12-27 17-36 4.8-9.8 8.9-18 12-25 3.3-6.9 5.8-14 7.6-21 1.1-4.5 1.7-8.2 1.7-11 .001-6.5-2-11-6.1-14z"/>
	<path d="m809 291c-8.6 0-15-1.5-20-4.6-4.6-3.1-6.8-8.2-6.8-16 0-1.8 0.11-3.9 0.34-6.1 0.22-2.3 0.68-4.7 1.4-7.2 5.2-20 11-43 17-68 6.4-25 13-50 20-75 1.6-5.9 3.1-11 4.4-15 1.4-3.8 2.9-6.8 4.6-9 1.7-2.3 3.5-3.8 5.5-4.6 1.9-0.8 4.1-1.2 6.7-1.2h3.4v-9.6h-88v9.6h3.4c3.2 0 5.6 0.74 7.3 2.2 1.7 1.5 2.6 4.2 2.6 8 0 4.1-1 10-3.1 19l-39 154c-3 12-5.9 20-8.9 24-3 3.9-7.1 5.8-12 5.8h-3.4v9.6h175l26-83h-9.6c-10 22-23 38-38 50 0 0-29.84 17.1-48.84 17.1z"/>
	<path d="m966 231c2.2-8.4 4.8-17 7.6-27 2.8-9.3 5.6-18 8.3-27 2.7-8.6 5.3-16 7.6-24 2.4-7.1 4.3-13 5.7-17l-2.8-2.5-63 11-1.8 10c5 0 8.7.89 11 2.7 2.6 1.8 3.2 5.6 1.8 12l-18 74c-1.4 5.9-2.7 11-3.9 16-1.2 4.5-2.2 8.5-3 12-.83 3.5-1.4 6.7-1.8 9.6-.36 2.8-.53 5.8-.53 8.9 0 6.9 1.6 12 5 15 3.3 3.1 8.4 4.6 15 4.6 8.3 0 16-1.7 23-5.1 6.9-3.4 13-7.5 18-12 5.2-4.7 9.3-9.6 12-15 3.1-5.1 5-9.4 5.7-13l-7.8-4.3c-1.4 4.7-4 8.8-7.8 12-3.8 3.4-7.7 5.1-12 5.1-4 0-6-3-6-8.9 0-3.5.71-8.6 2.1-15 1.4-6.6 3.2-14 5.5-23z"/>
	<circle cx="978" cy="98" r="26"/>
	<path d="m1150 167c0-8.6-2.8-15-8.3-19-5.6-4-12-5.9-18-5.9-6.6 0-13 1.9-18 5.6-5.4 3.7-8.2 9.1-8.2 16 0 3.4.79 6.1 2.4 8.2 1.6 2 3.3 3.9 5.3 5.6 1.9 1.7 3.7 3.6 5.3 5.6s2.4 4.8 2.4 8.2c0 3.9-.97 8.6-2.9 14-1.9 5.7-4.5 12-7.8 18-3.3 6.6-7.2 13-12 21-4.5 7.3-9.5 14-15 22-.68-8.8-1.8-19-3.2-29-1.5-11-3.1-21-4.8-32s-3.5-21-5.4-31-3.9-19-5.9-28h-48l-1.7 9.5c3.4 0 5.9.8 7.6 2.4s3.2 4.9 4.6 9.9c2.9 9.7 6.5 27 11 51s8 54 12 89h16c12-15 25-32 39-49 13-17 27-36 40-55 5.2-7.7 8.9-15 11-21 2.3-6.1 3.4-12 3.4-16z"/>
	<path d="m1250 141c-16 0-30 3.7-43 11-13 7.4-24 17-33 28-9.2 11-16 24-21 38s-7.5 27-7.5 39c0 7.5.96 15 2.9 21 1.9 6.6 4.9 12 9 17 4.1 4.8 9.3 8.6 16 11 6.3 2.8 14 4.3 22 4.3 6.1 0 12-1 19-3.1 6.3-2 12-5.1 18-9.2 5.7-4.1 11-9.2 16-15 4.8-6.1 8.6-13 12-22l-6.5-4.4c-3.2 7.1-8.2 13-15 17-6.9 4.3-14 6.5-21 6.5-3.6 0-7.1-.62-10-1.9-3.2-1.2-6-3.3-8.5-6.1s-4.5-6.5-6-11c-1.5-4.4-2.2-9.8-2.2-16 0-5.2.17-10 .51-15 .34-4.6.96-9.2 1.9-14 2 .23 4.1.34 6.1.34h6.1c17 0 30-1.6 40-5 10-3.3 18-7.5 24-12 5.6-5 9.3-10 11-16 1.8-5.8 2.7-11 2.7-16 0-7.3-2.6-14-7.9-19-5.2-5.3-13-8-23-8zm-8.2 41c-2 4.3-5.2 8.4-9.4 12-4.2 3.8-9.6 6.9-16 9.4-6.5 2.5-14 3.8-23 3.8 4.8-17 10-30 17-38 6.4-8.5 14-13 23-13 3.9 0 6.8 1.3 8.7 3.9s2.9 5.9 2.9 9.7c.001 3.9-1 8-3.1 12z"/>
</g><g transform="matrix(.948 0 0 .917 82.9 27.7)"><path d="m94 334c6.4-.89 13-.69 19-.037 2.2.44 4.4 1.5 6.1 3.1 1.7 2.1 2.9 4.6 3.7 7.2.23 2.6-1.8 5.5-4.6 5.5-2.6-1.6-3.5-4.5-4.9-6.9-1.5-1.3-3.7-1.3-5.6-1.3-4.3.16-8.5-.39-13 .26-1.5.79-2.9 2-3.7 3.5-.6 3.6-.95 7.3-.17 11 .17 2.1 2.1 3.8 4.1 4.2 2.9.94 6 .38 8.9.5 2.6.12 5.2-.24 7.8.18 5.3 1.3 9.9 5.8 11 11 .55 4.6.33 9.3-.33 14-1.1 1.9-2 4-3.6 5.5-2.3 2-5.2 3.4-8.2 3.9-2.6.17-5.2.031-7.8.073-4.4-.052-9.1.47-13-1.6-3.4-1.3-5.4-4.8-6.1-8.3-.67-1.7-.26-3.8.91-5.2 1.1-1.2 2.9-.55 4.3-.68 2.1 1.4 2.3 4.1 3.4 6.1 2.5 2.7 6.5 1.7 9.8 1.8 3.3-.26 6.9.63 10-.98 1.6-.85 3.2-2.4 3.1-4.4.18-3.4.39-6.8-.18-10-1.3-1.6-2.8-3.7-5.1-3.7-4-.03-8 .01-12 .01-2.2.058-4.3-.8-6.4-1.2-1.3-.88-2.7-1.6-3.8-2.6-2.3-2.1-3.6-5.1-4.3-8.1-.21-2.4.038-4.9-.073-7.3-.16-3.1.23-6.4 2-9 2.1-3 5-5.8 8.8-6.4z"/><path d="m354 335c3-1.5 6.5-.71 9.7-1 2.2-.19 4.4.19 6.6.59 1.3.62 2.2 2 2.1 3.5.038 16-.02 32 .017 48 .046 1.1-.23 2.8 1.3 2.9 3.1.25 6.4-.41 9.5.45 2.5 2 1.2 7.5-2.4 7.3-8.1.029-16 .056-24-.018-1.5.1-3-.89-3.5-2.4-.65-1.7.12-3.5.95-5 3.1-1.4 6.4.18 9.7-.3 1.1-.17 1-1.5 1-2.4.042-14 .021-29 .016-43-.16-1.5-2-1.2-3-1.2-3 .042-6.9.94-8.8-2.1-.12-1.6-.82-4.1 1.1-4.9z"/><path d="m450 334c1.9-.42 4.3-.61 5.8.83 1.5 1.2 2 3.2 2.3 5 .061 2.6-1.8 5.2-4.2 6.2-2 .19-4-.5-5.9-.89-1.2-.13-1.6-1.5-2-2.4-.92-2.4-.18-5.1.78-7.3.73-1 2.1-1.2 3.2-1.4z"/><path d="m593 335c3.2-2.4 7.3-1.2 11-1.6 2.2-.28 4.4.23 6.5.68 1.2.72 2.4 1.8 2.2 3.3.035 17-.053 34 .041 50 2.8.95 5.9-.25 8.8.35 1.6-.1 2.6 1.3 3 2.6.49 2.3-1.5 5.2-4 5-7.9-.029-16 .032-24-.035-1.5.057-2.7-.8-3.7-1.8-.012-1.5-.026-2.9.009-4.4.39-.44.79-.88 1.2-1.3 2.2-.51 4.4-.63 6.6-.24 1.3-.021 3.2.49 3.9-.86.12-12 .069-23 .069-35-.079-3.3.27-6.5-.063-9.8-.53-1.3-2.2-1.3-3.4-1.3-2.7.18-6.1.88-8.1-1.5-.52-1.5-.24-3.2-.22-4.8z"/><path d="m858 334c1.6-.37 3.4-.43 4.8.36 2.4 1.2 3.4 4.2 3.2 6.7-.51 2.3-2.3 4.4-4.6 5-1.9.16-3.6-.49-5.4-.92-1.2-.16-1.7-1.5-2-2.5-.8-2.2-.3-4.5.37-6.7.57-1.4 2.2-1.8 3.6-2z"/><path d="m192 336c1-1.6 3.1-2.2 4.9-1.6.78.79 1.8 1.5 2.1 2.6.54 2 .2 4.1.21 6.2.067 3.4-.19 6.8.005 10 2.3.34 4.3-1.1 6.6-.98 5.5-.011 11-.18 17 .068 3.7.88 6.5 4 8.1 7.3.9 2.3.66 4.7.68 7.1.005 7.9-.017 16 0 24 .009 1.6-.34 3.2-1.2 4.4-1.3 1.3-3.2.76-4.8.77-2.1-2.2-1.9-5.5-1.9-8.3.17-7.1-.065-14 .006-21-.067-1.6-.41-3.1-.48-4.6-.78-.54-1.4-1.6-2.4-1.6-5-.01-10-.072-15 .033-3.4 1.1-6.1 4.6-6.1 8.2-.078 6.1.005 12-.006 18-.036 2.8.41 5.8-1.1 8.3-1.2 1.6-3.3 1.1-5 1-.4-.45-.79-.89-1.2-1.3-.28-1.8-.69-3.6-.62-5.4.057-16 .004-31 .02-47-.065-2.2-.23-4.6.64-6.7z"/><path d="m516 336c1.1-1.8 3.9-2.5 5.5-1.1 1.4 1.1 2 2.9 2 4.6-.22 16-.1 31-.13 47 .32 2.9-.093 5.9-.9 8.7-1.5 1.9-4.1 1.2-6.1.73-1.8-.56-3.5.78-5.3.68-5.7-.072-11 .067-17-.077-2 .11-3.7-1.2-5.4-2-3.4-1.9-4.9-5.8-5.5-9.5-.037-6.6.016-13-.01-20 .036-4 1.6-8.3 5.1-10 2.1-1.6 4.7-2.3 7.3-2.1 6.2.088 12 .12 19 .042 2.6-.77 1.2-4.1 1.1-6 .042-3.5-.38-7 .57-10zm-24 26c-1.3 5.9-.48 12-.75 18-.063 2.3.015 4.7 1 6.7.91 1.3 2.6 2 4.2 1.9 3.3-.13 6.5-.12 9.8-.17 2.6-.041 5.6.48 7.9-1.1 1.6-1.2 1.4-3.5 1.6-5.2-.14-4.8-.28-9.7.011-15 .1-2-.43-4-.71-5.9-.57-.41-1.1-.84-1.7-1.3-6.3-.11-13-.052-19-.038-1.1-.097-1.8.95-2.3 1.8z"/><path d="m1e3 336c1.1-1.2 2.3-2.6 4.1-2.5 1.8.13 3 1.7 3.6 3.3.61 2.3.025 4.6.19 6.9.19 2.4-.28 4.8-.015 7.2.35.7 1.1 1.1 1.9 1 5.2.068 10-.14 16 .011.97 1.1 2.7 1.9 2.5 3.6-.037 1.9-1.7 3.2-3.2 4.1-5.3.23-11 .018-16 .1-.67.75-1.8 1.4-1.4 2.6.57 4.3.093 8.6.31 13 .099 3.7-.68 7.8 1 11 2.8 2.3 7.6 2.3 10-.48 1.5-1.4 2-4 4.3-4.4 2.9-.17 5.3 3.2 4.3 5.9-1.2 2.2-2.3 4.5-4.3 6-4 2.6-8.9 2.3-13 2.1-3.7-.98-7.3-3.3-8.8-7-.34-1.2-1.1-2.2-1.1-3.4-.025-8.1-.079-16 .015-24-.42-.37-.83-.74-1.2-1.1-2.4.33-4.9-.29-6.5-2.3-.4-1.2-.41-2.7.014-3.9 1.9-2.5 5.5-.92 7.7-2.9.026-4.9-.24-9.8-.011-15z"/><path d="m141 355c1.3-1.1 2.6-2.2 4.2-2.9 3.8-.31 7.7-.089 11-.15 4.2.051 8.3-.15 12 .16 1.6.63 3.1 1.5 4.5 2.6 2.2 1.8 2.7 4.7 3.6 7.3-.86 1.8-2.6 4-4.8 3.8-2.6-1.1-3-4.3-5.1-6-6.6.014-13-.032-20 .02-2.3 1.4-2.5 4.3-2.7 6.7.14 4.7.16 9.3.047 14 .077 1.5-.047 3.1.49 4.5.69 1.9 2.8 2.7 4.6 2.8 4.8.29 9.6-.17 14 .17 1.9.14 3.7-.84 4.5-2.5 1.2-1.6 2.1-3.8 4.3-4.1 1.8.86 3.4 2.4 4 4.2-.33 2.7-1.9 5.1-3.7 7.1-2 2-4.9 2.6-7.6 2.9-5.4.14-11 .015-16 .065-4.7.24-9.6-2.4-12-6.7-1.4-2.6-1.4-5.7-1.4-8.6.073-5.3-.03-11 .021-16 .3-3.4 1.2-7.2 4-9.5z"/><path d="m246 360c1-3.8 4.4-6.9 8.3-7.7 6.1-.28 12 .006 18-.15 1.8.13 3.9-.33 5.5.74 1.8 1.1 3.8 2 4.9 3.9 1.2 1.9 2 4.1 2.3 6.3.1 6.6-.068 13 .062 20 .056 2.2-.67 4.3-1.1 6.4-2.3 3.4-5.8 6.5-10 6.7-5.7.016-11-.006-17 .004-4.2-.25-8.6-2.5-10-6.5-2.5-4.9-1.1-11-1.5-16 .28-4.5-.5-9.2.92-14zm7.3 3.6c-.077 6.1.021 12-.057 18 .067 1.8-.11 3.8.91 5.4 1.2.47 2.5 1 3.8 1 4.9.23 9.7-.045 15 .15 1.5.15 2.8-.57 3.9-1.5.52-1.6 1.3-3.2 1.2-5-.14-5.7.11-11-.083-17-.22-1.8-.6-4.1-2.5-4.8-6.2-.11-12-.011-19-.045-1.9-.18-3.2 2-3.1 3.7z"/><path d="m304 355c2.1-1.5 4.6-2.8 7.3-2.6 6.7.16 13-.18 20 .16 2.4 1.1 5 2.5 6.4 5 1.2 1.9 2 4.1 2 6.4.083 6.7.005 13-.036 20 .36 6.4-5.6 12-12 12-5.5-.042-11 .031-16-.042-2.6.062-4.9-1.2-7-2.6-1.5-.97-2.3-2.6-3.3-4-.32-1.7-1.3-3.2-1.2-4.9.062-7.4-.087-15 .077-22 .74-2.6 1.7-5.5 4-7.2zm6 5.3c-2 1.1-2.2 3.6-2.3 5.6-.03 5.7-.021 11-.01 17-.006 2.4 1.4 5.4 4.2 5.5 4.5-.021 9-.17 13-.092 1.3-.032 2.7.046 3.9-.4 1.7-.42 2.5-2.3 2.8-3.9.047-6.2.015-12 .005-19 .072-1.6-.61-3.1-1.3-4.4-.57-1-1.9-.75-2.8-.79-6 .1-12-.16-18 .13z"/><path d="m440 352c1.3 0 2.6-.39 3.9-.41 3.9.53 7.9.28 12 .35 1.3.78 1.8 2.2 1.8 3.7-.14 7.4.24 15 .14 22 .25 2.9-.6 5.8-.34 8.7.78.55 1.5 1.4 2.6 1.3 2.4.045 4.9-.17 7.3.3 1.4.47 2.2 1.8 2.5 3.2-.014 1.7-1.1 3-2.2 4.1-2.7.32-5.4.16-8.1.19-5.9-.021-12 .047-18-.026-2.8.23-5.4-3.4-3.6-5.8.35-.63.81-1.3 1.5-1.6 2.9-1.1 6.1.17 9.1-.64 1.2-.96 1.3-2.7 1.1-4.1-.46-4.8.2-9.6-.22-14-.23-2.3.31-4.5.43-6.7.17-1.1-.73-1.8-1.3-2.6-2.4-.005-4.8.029-7.2-.005-1.2.13-2-.73-3-1.2-.51-1.3-1.6-2.7-.88-4.1.37-1 1.2-1.7 2-2.3z"/><path d="m545 352c4.1-.4 8.2-.1 12-.19 3.8.081 7.6-.24 11 .17 1.7.8 3.2 1.8 4.7 2.9 2 1.9 2.8 4.7 3.5 7.3.097 7.3.036 15 .042 22-.038 6.6-6.4 12-13 12-4.8-.015-9.7-.009-15 0-4.7.15-9.5-2.5-11-6.9-1.3-2.4-1-5.2-1.1-7.8.066-5.7.025-11 .01-17-.021-2.9.95-5.9 2.8-8.1 1.5-1.5 3.2-2.8 5.1-3.7zm2.2 7.6c-1.3 1-2.3 2.4-2.3 4.1-.11 5.9.042 12-.048 18 .022 1.7-.19 3.8 1.2 5.1 1.1.8 2.6 1.2 3.9 1.2 4.5.26 9-.14 14 .13 1.7.14 3.5-.45 4.6-1.8 1.6-2.7.84-5.9.95-8.8-.093-5.1.52-10-.51-15-.2-.98-1.2-1.5-1.8-2.1-6.5.009-13-.021-20 .015z"/><path d="m677 352c2.1-.16 4.1.44 6.1.47 2.9-.71 5.8-.44 8.7-.48 4 .046 8-.021 12-.007 1.8.1 3.8-.26 5.3.97 3.6 1.7 6.1 5.5 6.5 9.4.22 6.1-.058 12 .057 18-.057 1.9.025 3.8-.21 5.7-1.2 5.3-6.2 9.6-12 9.5-6.1-.088-12 .19-18-.24-1-.26-1.9.51-1.9 1.5-.23 3.5.2 7-.084 10-.004 1.5-.79 3.2-2.1 4-1.3.21-2.7.19-4 0-1.4-1-1.6-3-1.6-4.6-.011-17 0-34 0-50-.071-1.6.34-3.2 1.1-4.7zm8.9 7.8c-.6.67-1.6 1.1-1.7 2.1-.32 1.9-.7 3.7-.62 5.7.11 4 .011 7.9.037 12 .03 2-.25 4.2.6 6.1.32 1.4 1.6 2.4 3 2.3 4.1.26 8.3-.081 12 0 1.7-.015 3.5.11 5.2-.25 2.2-.5 3.1-3 3.1-5.1-.042-4.7-.064-9.3-.026-14 .014-3 .21-6.4-2-8.8-6.7.008-13-.027-20 .019z"/><path d="m732 352c2.7-.57 5.5-.28 8.3-.15 2.2 1.6 5.3 1.9 7.6.51 1-.72 2.4-.55 3.6-.61 3.3.034 6.6-.3 9.9.19 3.1 1.2 6.3 3.2 7.3 6.6 1.6 3.3 1.8 7.2.78 11-.81 2.3-3.4 2.4-5.4 2.2-.4-.32-.79-.64-1.2-.96-.31-2.8-1.2-5.5-1.2-8.3-.45-1.1-1.1-2.6-2.4-2.6-3.1-.063-6.1-.006-9.2-.016-2.3 1.7-2.2 4.7-2.5 7.2.24 5 .16 10 .1 15 0 1.9-.84 4.6 1 5.8 2.6.65 5.3-.28 8 .27 2.3.19 4.2 3 2.9 5.1-.82 1.4-2.2 2.6-3.9 2.5-6.2.056-12 .015-19 .021-1.7-.038-4-.4-4.6-2.3-1-1.7-.17-3.8 1.2-5.1 1.6-.38 3.4-.21 5-.54.75-.15 1.3-.89 1.3-1.6-.31-7.9-.34-16 .037-24 .035-1.3-.93-2.8-2.4-2.5-2.7.12-6.3-.009-7.5-2.9-1-1.7.4-3.8 1.9-4.6z"/><path d="m786 359c1.5-3.1 4.2-5.7 7.5-6.8 6.6-.35 13 0 20-.21 4.1-.27 8.1 2 10 5.5.64 1.9 1.7 3.8 1.7 5.9-.073 5.7-.094 11-.16 17 .39 3.5-.063 7.3-2 10-2.4 3-6.3 5.1-10 5-5.8-.056-12 .1-18-.072-2-.73-4.2-1.3-5.7-2.8-1.4-1.3-2.7-2.8-3.5-4.6-1.2-4.7-.48-9.7-.7-14 .19-4.9-.57-10 .8-15zm9.3.85c-2.2 1.3-2 3.9-2.2 6.2-.043 5.2.016 10-.021 16-.021 1.7.1 3.6 1.1 5.1 1.4 1.3 3.4 1.3 5.1 1.4 4.1.016 8.3-.17 12 0 1.8.036 3.9-.41 4.9-2.1 1.1-3.1.59-6.4.66-9.6-.062-5 .25-10-.46-15-.76-.6-1.4-1.7-2.4-1.6-6.3-.041-13-.052-19 .017z"/><path d="m848 352c1.2-.069 2.3-.3 3.5-.39 4.1.44 8.2.27 12 .29 2.6 1.9 2.1 5.5 2.1 8.3.22 6.9-.094 14 .058 21-.12 6.8.077 14-.073 20 .031 4.7-3.4 9.4-8.1 10-5.4.18-11 .14-16 .015-3.1-.61-5.6-2.9-7.1-5.5-.8-2.9-1.2-5.9-.021-8.8.43-.42.88-.83 1.3-1.2 1.3.073 2.8-.28 4.1.22 2.3 1.2.66 4.3 2.1 6.1 1.5 1.9 4.2 1.5 6.4 1.5 2.6-.17 5.2.36 7.8-.18 1.8-.7 1.8-3 1.9-4.6-.084-11 .094-21-.077-32 .13-2 .32-4 .28-6-.65-.48-1.1-1.4-2-1.3-2.5-.17-5.2.25-7.6-.2-2.6-.94-3.1-4-2.2-6.3.5-.38 1-.76 1.5-1.1z"/><path d="m884 360c1.5-3.7 4.6-7 8.6-7.9 7.6-.062 15-.11 23 .031 2.3 1.5 5 2.9 6.3 5.5 2.6 4.3 1.8 9.4 1.9 14-.046 1.7.41 3.8-1.2 4.9-2.1.61-4.3 1.3-6.5 1.2-7.1-.1-14 .084-21-.17-1.2-.056-2.6.016-3.1 1.3-.31 1.8-.2 3.7.02 5.5.38 2 2.1 3.4 4.1 3.4 4.8.089 9.6-.057 14 .031 2.2.084 4.4-1 5.5-3 .93-1.5 1.8-3.6 3.8-3.7 1.9.63 3.9 2.2 4.1 4.3-.42 3.6-2.9 6.7-5.9 8.7-3.8 1.8-8.1 1.4-12 1.4-4-.042-8 .098-12-.073-2.8-.64-5.5-2-7.3-4.2-.72-1.6-2.3-2.8-2.4-4.6-.49-4.8-.12-9.7-.28-15-.048-4.1-.16-8.2.35-12zm8.9.49c-1.8 1.9-1.3 4.8-1.6 7.2-.37 1.9 2 2.7 3.5 2.5 4.5-.27 9 .053 13-.21 2.1-.14 4.4.89 6.4-.041.72-1.7.72-3.6 1.1-5.4.34-1.9-1.2-3.4-2.3-4.7-6.1-.048-12 0-18-.027-.82.02-1.9-.11-2.4.7z"/><path d="m944 354c1.2-.84 2.6-1.5 4.2-1.4 6.9-.048 14-.097 21-.01 1.4-.16 2.5.8 3.9 1.2 2.6 1.7 4.2 4.3 5.4 7 .47 2-.4 4.2-2.4 5-1.6 1-3.7.043-4.5-1.6-.73-1.5-1.9-2.7-3.2-3.9-6.6-.034-13-.005-20-.014-2 1.6-2.2 4.4-2.1 6.8.018 5.2-.031 10-.015 16 .13 2 .35 4.8 2.6 5.5 2.5.77 5.1.26 7.7.34 2.3.088 4.5-.11 6.8.058 1.6.071 3.3.23 4.7-.64 2.7-1 2.8-4.9 5.7-5.7 3-.49 5.3 3.1 4.5 5.8-1.2 2.3-2.4 4.8-4.7 6.3-2.3 1.3-5 2.1-7.7 2-5.9-.065-12 .1-18-.088-1.7-.48-3.2-1.3-4.8-2.1-2.6-2.2-5-5.2-4.9-8.8-.12-7.3-.032-15-.079-22-.072-3.9 2.5-7.2 5.5-9.4z"/></g></g></g></g>
</g></g>
</svg>
